<?xml version="1.0" encoding="UTF-8"?>
<svg width="24px" height="24px" viewBox="0 0 24 24" version="1.1" xmlns="http://www.w3.org/2000/svg" xmlns:xlink="http://www.w3.org/1999/xlink">
    <title>instagram-alt</title>
    <defs>
        <filter id="filter-1">
            <feColorMatrix in="SourceGraphic" type="matrix" values="0 0 0 0 0.913725 0 0 0 0 0.937255 0 0 0 0 0.992157 0 0 0 1.000000 0"></feColorMatrix>
        </filter>
    </defs>
    <g id="Page-1" stroke="none" stroke-width="1" fill="none" fill-rule="evenodd">
        <g id="HOME" transform="translate(-1262.000000, -83.000000)">
            <g id="Group-10" transform="translate(619.000000, 83.000000)">
                <g id="Group-9" transform="translate(643.000000, 0.000000)">
                    <g filter="url(#filter-1)" id="instagram-alt">
                        <g>
                            <path d="M12,9.024 C10.3564006,9.024 9.024,10.3564006 9.024,12 C9.024,13.6435994 10.3564006,14.976 12,14.976 C13.6435994,14.976 14.976,13.6435994 14.976,12 C14.976,11.2107157 14.662458,10.4537585 14.1043498,9.89565022 C13.5462415,9.33754196 12.7892843,9.024 12,9.024 Z M23.916,6.084 C23.9096868,5.15730962 23.7390435,4.23908563 23.412,3.372 C22.9247993,2.08859211 21.9114079,1.07520069 20.628,0.588 C19.7609144,0.260956549 18.8426904,0.0903131522 17.916,0.084 C16.368,0 15.912,0 12,0 C8.088,0 7.632,0 6.084,0.084 C5.15730962,0.0903131522 4.23908563,0.260956549 3.372,0.588 C2.08859211,1.07520069 1.07520069,2.08859211 0.588,3.372 C0.260956549,4.23908563 0.0903131522,5.15730962 0.084,6.084 C0,7.632 0,8.088 0,12 C0,15.912 0,16.368 0.084,17.916 C0.0969167324,18.8459513 0.267329166,19.76699 0.588,20.64 C0.827793645,21.2715855 1.20015441,21.8444482 1.68,22.32 C2.15783219,22.8027689 2.73526718,23.1754397 3.372,23.412 C4.23908563,23.7390435 5.15730962,23.9096868 6.084,23.916 C7.632,24 8.088,24 12,24 C15.912,24 16.368,24 17.916,23.916 C18.8426904,23.9096868 19.7609144,23.7390435 20.628,23.412 C21.2647328,23.1754397 21.8421678,22.8027689 22.32,22.32 C22.7998456,21.8444482 23.1722064,21.2715855 23.412,20.64 C23.7387273,19.7686607 23.9093365,18.8465582 23.916,17.916 C24,16.368 24,15.912 24,12 C24,8.088 24,7.632 23.916,6.084 Z M20.868,15.684 C20.8294905,16.424525 20.6714495,17.1539453 20.4,17.844 C19.9293231,19.0070014 19.0070014,19.9293231 17.844,20.4 C17.1474144,20.656313 16.4139234,20.7981483 15.672,20.82 C14.724,20.82 14.472,20.82 12,20.82 C9.528,20.82 9.276,20.82 8.328,20.82 C7.58607661,20.7981483 6.85258556,20.656313 6.156,20.4 C5.56092377,20.1788624 5.02353221,19.826071 4.584,19.368 C4.1491997,18.9375016 3.81341284,18.4174415 3.6,17.844 C3.34266861,17.1481387 3.20472818,16.4138088 3.192,15.672 C3.192,14.724 3.192,14.472 3.192,12 C3.192,9.528 3.192,9.276 3.192,8.328 C3.20472818,7.58619116 3.34266861,6.85186127 3.6,6.156 C3.82113763,5.56092377 4.17392903,5.02353221 4.632,4.584 C5.06439988,4.15154812 5.58391631,3.81611231 6.156,3.6 C6.85258556,3.34368696 7.58607661,3.20185167 8.328,3.18 L8.328,3.18 C9.276,3.18 9.528,3.18 12,3.18 C14.472,3.18 14.724,3.18 15.672,3.18 C16.4139234,3.20185167 17.1474144,3.34368696 17.844,3.6 C18.4390762,3.82113763 18.9764678,4.17392903 19.416,4.632 C19.8508003,5.06249839 20.1865872,5.58255853 20.4,6.156 C20.656313,6.85258556 20.7981483,7.58607661 20.82,8.328 C20.82,9.276 20.82,9.528 20.82,12 C20.82,14.472 20.904,14.724 20.868,15.672 L20.868,15.684 Z M18.948,6.756 C18.6588452,5.97152933 18.0404707,5.35315483 17.256,5.064 C16.723767,4.87951235 16.1632146,4.79014891 15.6,4.8 C14.664,4.8 14.4,4.8 12,4.8 C9.6,4.8 9.336,4.8 8.4,4.8 C7.83392046,4.8055329 7.27328261,4.91116033 6.744,5.112 C5.97188204,5.38790037 5.35558585,5.98234208 5.052,6.744 C4.87773191,7.27844 4.79259456,7.83791402 4.8,8.4 C4.8,9.336 4.8,9.6 4.8,12 C4.8,14.4 4.8,14.664 4.8,15.6 C4.81189691,16.1654358 4.91732228,16.7250012 5.112,17.256 C5.40115483,18.0404707 6.01952933,18.6588452 6.804,18.948 C7.31599954,19.1362959 7.85478341,19.2416221 8.4,19.26 L8.4,19.26 C9.336,19.26 9.6,19.26 12,19.26 C14.4,19.26 14.664,19.26 15.6,19.26 C16.1660795,19.2544671 16.7267174,19.1488397 17.256,18.948 C18.0404707,18.6588452 18.6588452,18.0404707 18.948,17.256 C19.1488397,16.7267174 19.2544671,16.1660795 19.2600009,15.6 C19.2600009,14.664 19.2600009,14.4 19.2600009,12 C19.2600009,9.6 19.2600009,9.336 19.2600009,8.4 C19.2603476,7.83335774 19.1545218,7.27166686 18.948,6.744 L18.948,6.756 Z M12,16.5840158 C10.7853482,16.5840158 9.62061986,16.1006658 8.76285775,15.2406524 C7.90509564,14.3806389 7.42481194,13.2146476 7.42798423,12 L7.42798423,12 C7.42798423,10.1448544 8.54616495,8.47260752 10.260562,7.76380028 C11.9749591,7.05499305 13.9475573,7.44938507 15.2576229,8.7628892 C16.5676885,10.0763933 16.9569086,12.0500185 16.24361,13.7625517 C15.5303113,15.475085 13.8551392,16.5888564 12,16.5840158 Z M16.8,8.316 C16.25061,8.25784662 15.8336838,7.79445925 15.8336838,7.242 C15.8336838,6.68954075 16.25061,6.22615338 16.8,6.168 L16.8,6.168 C17.34939,6.22615338 17.7663162,6.68954075 17.7663162,7.242 C17.7663162,7.79445925 17.34939,8.25784662 16.8,8.316 Z" id="Shape" fill="#6563FF" fill-rule="nonzero"></path>
                        </g>
                    </g>
                </g>
            </g>
        </g>
    </g>
</svg>