<?xml version="1.0" encoding="UTF-8"?>
<svg width="24px" height="24px" viewBox="0 0 24 24" version="1.1" xmlns="http://www.w3.org/2000/svg" xmlns:xlink="http://www.w3.org/1999/xlink">
    <title>Group 8</title>
    <g id="Page-1" stroke="none" stroke-width="1" fill="none" fill-rule="evenodd">
        <g id="HOME" transform="translate(-1316.000000, -83.000000)" fill="#E9EFFD">
            <g id="Group-10" transform="translate(619.000000, 83.000000)">
                <g id="Group-9" transform="translate(643.000000, 0.000000)">
                    <g id="Group-8" transform="translate(54.000000, 0.000000)">
                        <path d="M13.8184102,0.000504883546 C16.1139174,0.0027768595 16.6494545,0.0152727273 17.916,0.084 C18.8426904,0.0903131522 19.7609144,0.260956549 20.628,0.588 C21.9114079,1.07520069 22.9247993,2.08859211 23.412,3.372 C23.7390435,4.23908563 23.9096868,5.15730962 23.916,6.084 C23.9872727,7.39745455 23.9980716,7.92474931 23.9997078,10.4440154 L23.9997078,13.5559846 C23.9980716,16.0752507 23.9872727,16.6025455 23.916,17.916 C23.9093365,18.8465582 23.7387273,19.7686607 23.412,20.64 C23.1722064,21.2715855 22.7998456,21.8444482 22.32,22.32 C21.8421678,22.8027689 21.2647328,23.1754397 20.628,23.412 C19.7609144,23.7390435 18.8426904,23.9096868 17.916,23.916 C16.6025455,23.9872727 16.0752507,23.9980716 13.5559846,23.9997078 L10.4440154,23.9997078 C7.92474931,23.9980716 7.39745455,23.9872727 6.084,23.916 C5.15730962,23.9096868 4.23908563,23.7390435 3.372,23.412 C2.73526718,23.1754397 2.15783219,22.8027689 1.68,22.32 C1.20015441,21.8444482 0.827793645,21.2715855 0.588,20.64 C0.267329166,19.76699 0.0969167324,18.8459513 0.084,17.916 C0.0152727273,16.6494545 0.0027768595,16.1139174 0.000504883546,13.8184102 L0.000504883546,10.1815898 C0.0027768595,7.88608264 0.0152727273,7.35054545 0.084,6.084 C0.0903131522,5.15730962 0.260956549,4.23908563 0.588,3.372 C1.07520069,2.08859211 2.08859211,1.07520069 3.372,0.588 C4.23908563,0.260956549 5.15730962,0.0903131522 6.084,0.084 C7.35054545,0.0152727273 7.88608264,0.0027768595 10.1815898,0.000504883546 Z M7.272,8.86803762 L3.672,8.86803762 L3.672,19.6680376 L7.272,19.6680376 L7.272,8.86803762 Z M16.116,8.58003762 C14.7821284,8.53076446 13.5304809,9.22355828 12.864,10.3800376 L12.864,10.3800376 L12.864,8.85603762 L9.264,8.85603762 L9.264,19.6560376 L12.864,19.6560376 L12.864,13.6560376 C12.8494029,13.3591258 12.8900933,13.0620859 12.984,12.7800376 C13.2653779,12.0001174 14.0028967,11.4781074 14.832,11.4720376 C16.14,11.4720376 16.656,12.4200376 16.656,13.8720376 L16.656,13.8720376 L16.656,19.6680376 L20.256,19.6680376 L20.256,13.4520376 C20.256,10.1280376 18.516,8.58003762 16.116,8.58003762 Z M5.62579189,3.60092256 L5.472,3.61203762 C4.43812295,3.61203762 3.6,4.45016056 3.6,5.48403762 C3.6,6.51791467 4.43812295,7.35603762 5.472,7.35603762 L5.472,7.35603762 L5.62579189,7.36715267 C6.29015472,7.38795107 6.92145973,7.05594548 7.27928719,6.48677248 C7.66463983,5.87381694 7.66463983,5.09425829 7.27928719,4.48130275 C6.89393454,3.86834721 6.19141266,3.53044974 5.472,3.61203762 Z" id="Combined-Shape"></path>
                    </g>
                </g>
            </g>
        </g>
    </g>
</svg>